<svg width="23" height="18" viewBox="0 0 23 18" fill="none" xmlns="http://www.w3.org/2000/svg">
<g clip-path="url(#clip0_190_782)">
<path d="M18.7576 17.1625C18.8434 17.2864 18.9031 17.4025 18.9418 17.4999H18.7949V17.5H2.02145C2.16929 16.5393 3.05902 15.8807 3.99098 16.0527L4.40765 16.1296L4.55186 15.7312C4.97498 14.5623 6.39943 14.2227 7.27611 15.0535L7.87006 15.6165L8.09993 14.8311C8.60139 13.1178 11.0358 13.223 11.3761 15.0099L11.5318 15.8274L12.1805 15.3062C12.8739 14.749 13.8727 14.8329 14.4679 15.5182L14.6833 15.7662L14.9965 15.6669C15.6319 15.4656 16.3276 15.6669 16.7692 16.1998L16.9367 16.402L17.1983 16.3788C17.9037 16.3163 18.4443 16.7096 18.7576 17.1625Z" stroke="#216206"/>
<path d="M9.83008 13.3121L9.83008 13.3119L9.83008 13.3121Z" stroke="#216206"/>
<path d="M11.7748 2.45347L11.7748 2.45357C11.7539 3.0233 11.6356 3.64239 11.321 4.1753C11.0406 4.65045 10.5899 5.0827 9.84864 5.35242C9.49148 4.70504 9.40411 4.11294 9.46516 3.58505C9.53339 2.99521 9.79155 2.45014 10.1341 1.97504C10.4766 1.5001 10.8907 1.11323 11.2389 0.846027C11.3554 0.75667 11.4619 0.682716 11.5528 0.624692C11.5845 0.723982 11.6163 0.84752 11.6457 0.991947C11.741 1.45995 11.7901 2.03817 11.7748 2.45347ZM9.96337 5.54728L9.96319 5.547L9.96337 5.54728ZM11.8107 0.483716C11.8106 0.483921 11.8073 0.485224 11.8012 0.487012C11.8078 0.484406 11.8109 0.483512 11.8107 0.483716Z" stroke="#216206"/>
<path d="M6.23674 5.81158C6.30374 5.74561 6.3871 5.74561 6.42277 5.74561C6.81181 5.74561 9.10736 6.14115 9.90804 7.88998C9.94518 7.97077 9.93509 9.02439 9.93021 9.53427C9.92912 9.64726 9.9283 9.73355 9.9283 9.77663C9.9283 9.9665 9.76661 9.99905 9.61046 10.0036L6.23674 5.81158ZM6.23674 5.81158L6.42277 6.0005L6.58756 6.16785C6.52275 6.23167 6.44846 6.24374 6.42497 6.24561C6.46477 6.24595 6.55791 6.25511 6.68908 6.27802C6.68248 6.1971 6.68062 6.12958 6.68213 6.07736C6.68279 6.0547 6.68403 6.03701 6.68538 6.02395C6.68665 6.01173 6.68777 6.00588 6.68789 6.0053C6.6879 6.00524 6.6879 6.00524 6.68789 6.00528C6.68779 6.00575 6.68708 6.009 6.68541 6.01451C6.68379 6.0199 6.68073 6.02919 6.67557 6.0413C6.6674 6.06049 6.64304 6.11308 6.58802 6.1674L6.42277 6.00001L6.23674 5.81158ZM9.43052 9.50347C9.43052 9.50351 9.43052 9.50355 9.43052 9.50359H8.96581V9.96367C9.11611 9.98849 9.27379 10.0023 9.43913 10.0036C9.448 10.0037 9.45689 10.0037 9.46581 10.0037L9.43052 9.50347ZM9.43052 9.50347C9.43418 9.50352 9.43784 9.50356 9.4415 9.50359H9.46581C9.49192 9.50359 9.51139 9.50383 9.52802 9.50402C9.5534 9.50433 9.57216 9.50455 9.59777 9.50375C9.62537 9.50288 9.63632 9.50094 9.63634 9.50104C9.63634 9.50108 9.63523 9.50132 9.6332 9.50187C9.62459 9.5042 9.56491 9.5214 9.50747 9.58603C9.49114 9.60439 9.47722 9.6242 9.46581 9.64473" stroke="#216206"/>
<path d="M12.3301 9.404C11.9058 10.3226 11.1826 11.1012 10.0037 11.1164C10.0018 10.9106 9.99939 10.6292 9.99907 10.3933C9.99877 10.1795 9.9999 9.97426 10.0038 9.81797C10.0055 9.74618 10.0078 9.68928 10.0103 9.64858C10.348 8.96437 10.9797 8.5156 11.6242 8.23248C12.0684 8.03731 12.4829 7.93654 12.7452 7.89076C12.7399 7.95568 12.7316 8.02924 12.7195 8.11045C12.6653 8.4735 12.5429 8.94331 12.3301 9.404ZM9.98065 9.711L9.98079 9.71071L9.98065 9.711ZM13.0113 7.8584C13.0201 7.8584 13.0182 7.85917 13.009 7.85841L13.0113 7.8584Z" stroke="#216206"/>
</g>
<defs>
<clipPath id="clip0_190_782">
<rect width="23" height="18" fill="white"/>
</clipPath>
</defs>
</svg>
