<svg width="23" height="18" viewBox="0 0 23 18" fill="none" xmlns="http://www.w3.org/2000/svg">
<path d="M9 12.9001V14.7C9 14.8137 9.07133 14.9175 9.18433 14.9685L9.66667 15.1854V17.7C9.66667 17.8656 9.816 18 10 18H12C12.184 18 12.3333 17.8656 12.3333 17.7V15.1854L12.8157 14.9682C12.9287 14.9175 13 14.8137 13 14.7V12.9001C13 12.3001 12.604 11.785 12.0367 11.5453C12.2193 11.3398 12.3333 11.083 12.3333 10.8001C12.3333 10.1383 11.7353 9.6001 11 9.6001C10.2647 9.6001 9.66667 10.1383 9.66667 10.8001C9.66667 11.083 9.78067 11.3398 9.96333 11.5453C9.396 11.785 9 12.3001 9 12.9001ZM11 10.2001C11.3677 10.2001 11.6667 10.4692 11.6667 10.8001C11.6667 11.131 11.3677 11.4001 11 11.4001C10.6323 11.4001 10.3333 11.131 10.3333 10.8001C10.3333 10.4692 10.6323 10.2001 11 10.2001ZM9.66667 12.9001C9.66667 12.4039 10.1153 12.0001 10.6667 12.0001H11.3333C11.8847 12.0001 12.3333 12.4039 12.3333 12.9001V14.5146L11.851 14.7318C11.738 14.7825 11.6667 14.8863 11.6667 15V17.4H10.3333V15C10.3333 14.8863 10.262 14.7825 10.149 14.7315L9.66667 14.5146V12.9001Z" fill="#216206"/>
<path d="M13.667 12.9001V14.7C13.667 14.8137 13.7383 14.9175 13.8513 14.9685L14.3337 15.1854V17.7C14.3337 17.8656 14.483 18 14.667 18H16.667C16.851 18 17.0003 17.8656 17.0003 17.7V15.1854L17.4827 14.9682C17.5957 14.9175 17.667 14.8137 17.667 14.7V12.9001C17.667 12.3001 17.271 11.785 16.7037 11.5453C16.8863 11.3398 17.0003 11.083 17.0003 10.8001C17.0003 10.1383 16.4023 9.6001 15.667 9.6001C14.9317 9.6001 14.3337 10.1383 14.3337 10.8001C14.3337 11.083 14.4477 11.3398 14.6303 11.5453C14.063 11.785 13.667 12.3001 13.667 12.9001ZM15.667 10.2001C16.0347 10.2001 16.3337 10.4692 16.3337 10.8001C16.3337 11.131 16.0347 11.4001 15.667 11.4001C15.2993 11.4001 15.0003 11.131 15.0003 10.8001C15.0003 10.4692 15.2993 10.2001 15.667 10.2001ZM14.3337 12.9001C14.3337 12.4039 14.7823 12.0001 15.3337 12.0001H16.0003C16.5517 12.0001 17.0003 12.4039 17.0003 12.9001V14.5146L16.518 14.7318C16.405 14.7825 16.3337 14.8863 16.3337 15V17.4H15.0003V15C15.0003 14.8863 14.929 14.7825 14.816 14.7315L14.3337 14.5146V12.9001Z" fill="#216206"/>
<path d="M4.33301 12.9001V14.7C4.33301 14.8137 4.40434 14.9175 4.51734 14.9685L4.99967 15.1854V17.7C4.99967 17.8656 5.14901 18 5.33301 18H7.33301C7.51701 18 7.66634 17.8656 7.66634 17.7V15.1854L8.14867 14.9682C8.26167 14.9175 8.33301 14.8137 8.33301 14.7V12.9001C8.33301 12.3001 7.93701 11.785 7.36967 11.5453C7.55234 11.3398 7.66634 11.083 7.66634 10.8001C7.66634 10.1383 7.06834 9.6001 6.33301 9.6001C5.59767 9.6001 4.99967 10.1383 4.99967 10.8001C4.99967 11.083 5.11367 11.3398 5.29634 11.5453C4.72901 11.785 4.33301 12.3001 4.33301 12.9001ZM6.33301 10.2001C6.70067 10.2001 6.99967 10.4692 6.99967 10.8001C6.99967 11.131 6.70067 11.4001 6.33301 11.4001C5.96534 11.4001 5.66634 11.131 5.66634 10.8001C5.66634 10.4692 5.96534 10.2001 6.33301 10.2001ZM4.99967 12.9001C4.99967 12.4039 5.44834 12.0001 5.99967 12.0001H6.66634C7.21767 12.0001 7.66634 12.4039 7.66634 12.9001V14.5146L7.18401 14.7318C7.07101 14.7825 6.99967 14.8863 6.99967 15V17.4H5.66634V15C5.66634 14.8863 5.59501 14.7825 5.48201 14.7315L4.99967 14.5146V12.9001Z" fill="#216206"/>
<path d="M19.959 7.34023C19.9487 7.22324 19.9317 7.10654 19.9137 6.98084C19.729 5.76675 19.2253 4.58477 18.4543 3.56028C18.3837 3.46788 18.3093 3.37548 18.2357 3.29238C18.14 3.17509 18.0407 3.05989 17.9377 2.94709C17.2167 2.1581 16.3187 1.48821 15.318 0.995913C15.2187 0.946413 15.1193 0.900214 15.016 0.852215C14.38 0.566318 13.711 0.350321 13.0297 0.210522C12.4713 0.0926238 11.8867 0.0233247 11.2917 0.00472494C11.0977 -0.00157498 10.9027 -0.00157498 10.7087 0.00472494C9.27767 0.0479244 7.92333 0.38122 6.68367 0.995613C6.68367 0.995613 6.68367 0.995613 6.68333 0.995613C5.43067 1.61211 4.345 2.49979 3.544 3.56298C2.69833 4.68887 2.17867 5.99385 2.042 7.33453C2.014 7.58563 2 7.84393 2 8.10163C2 8.27502 2.006 8.44842 2.01833 8.62092C2.032 8.81172 2.05467 9.00131 2.083 9.19001C2.234 10.1959 2.59167 11.1679 3.142 12.0457C3.142 12.046 3.14233 12.046 3.14233 12.0463C3.14233 12.0466 3.14267 12.0469 3.14267 12.0469C3.21967 12.1714 3.3 12.2938 3.38433 12.4141L3.94833 12.0946C3.87033 11.983 3.79567 11.8693 3.72333 11.7523C3.567 11.503 3.43 11.2447 3.30767 10.981C3.60733 11.0686 3.92 11.1529 4.246 11.2324L4.42033 10.6531C3.92033 10.5313 3.45267 10.3984 3.022 10.2586C2.79033 9.56381 2.66667 8.83692 2.66667 8.10163C2.66667 7.86373 2.67967 7.62523 2.70533 7.39123C2.712 7.32703 2.72333 7.26374 2.73167 7.19984C3.64533 7.49623 4.629 7.74163 5.66967 7.93093C5.66967 7.93153 5.66967 7.93303 5.66967 7.93363C5.67333 8.29812 5.69433 8.66682 5.73167 9.02921L6.39533 8.97401C6.36433 8.67012 6.34733 8.36022 6.34 8.04163C7.735 8.26032 9.18567 8.37912 10.6663 8.39472V9.00161H11.333V8.39532C12.6953 8.38122 14.034 8.27982 15.3257 8.09413C15.3183 8.38872 15.301 8.68422 15.2713 8.97371L15.935 9.02951C15.9703 8.68812 15.991 8.33892 15.9963 8.00233C15.9967 7.99843 15.9963 7.99423 15.9967 7.99033C17.167 7.79113 18.2623 7.52503 19.2703 7.19774C19.279 7.26224 19.289 7.32553 19.295 7.39303C19.3203 7.62523 19.3333 7.86373 19.3333 8.10163C19.3333 8.83602 19.21 9.56171 18.9783 10.2565C18.545 10.3966 18.079 10.5304 17.579 10.6534L17.7543 11.2324C18.0807 11.1523 18.392 11.0671 18.693 10.9789C18.57 11.2444 18.432 11.5042 18.2747 11.755C18.2047 11.8696 18.128 11.9845 18.0517 12.0931L18.615 12.4138C18.6987 12.2947 18.782 12.1696 18.857 12.0469C19.6047 10.8541 20 9.49001 20 8.10163C20 7.84393 19.986 7.58563 19.959 7.34023ZM5.685 7.32073C4.666 7.13054 3.70733 6.88694 2.83833 6.59864C3.05533 5.63896 3.48067 4.71767 4.09567 3.89928C4.11067 3.87948 4.12733 3.86088 4.14233 3.84108C4.76067 4.09547 5.42967 4.31567 6.14833 4.49177C5.87833 5.40076 5.72367 6.34875 5.685 7.32073ZM6.33367 3.91608C5.69967 3.76098 5.10567 3.57108 4.55467 3.35268C5.23267 2.61049 6.066 1.9832 7.004 1.52181C7.039 1.50441 7.07467 1.48971 7.11 1.47291C7.213 1.53381 7.32633 1.59231 7.44567 1.6487C6.99133 2.3474 6.61833 3.10699 6.33367 3.91608ZM10.6667 7.79503C9.18667 7.77913 7.73733 7.65853 6.34733 7.43503C6.378 6.47145 6.52767 5.53246 6.796 4.63337C8.00133 4.88027 9.309 5.01766 10.6667 5.03716V7.79503ZM10.6667 4.43747C9.373 4.41827 8.12867 4.28927 6.98333 4.05767C7.259 3.28398 7.61867 2.55919 8.05667 1.8953C8.81533 2.1548 9.72133 2.3084 10.6667 2.3378V4.43747ZM11 1.7447C9.90733 1.7447 8.859 1.56741 8.04733 1.24491C7.97633 1.21701 7.91667 1.18641 7.851 1.15701C8.76 0.820415 9.725 0.634417 10.731 0.604418C10.8207 0.601718 10.909 0.600218 11 0.601718C11.0873 0.599918 11.1787 0.601718 11.2683 0.604418C11.8197 0.621817 12.361 0.685717 12.8793 0.795215C13.3123 0.884014 13.738 1.00791 14.1513 1.16031C14.0133 1.22241 13.8663 1.28241 13.7053 1.33821C12.9247 1.60401 11.9893 1.7447 11 1.7447ZM14.7047 4.11887C13.647 4.31297 12.51 4.41977 11.3333 4.43747V2.3327C12.1693 2.3072 12.9623 2.1869 13.6657 1.9784C14.09 2.64079 14.4377 3.35808 14.7047 4.11887ZM11.3333 7.79533V5.03716C12.5727 5.01916 13.7727 4.90516 14.8893 4.69727C15.151 5.59396 15.2957 6.52934 15.3217 7.48813C14.034 7.67803 12.696 7.78093 11.3333 7.79533ZM14.296 1.7642C14.5157 1.6733 14.713 1.57491 14.889 1.47051C14.925 1.48761 14.9607 1.50381 14.997 1.52181C15.932 1.9817 16.7687 2.60869 17.444 3.35298C16.8053 3.60618 16.104 3.81588 15.3563 3.98358C15.084 3.19699 14.7287 2.45389 14.296 1.7642ZM15.984 7.38103C15.9503 6.41325 15.801 5.46796 15.5377 4.56017C16.3723 4.37237 17.1507 4.13147 17.8567 3.84108C17.8717 3.86028 17.8893 3.87978 17.904 3.89868C18.516 4.71227 18.9453 5.63536 19.163 6.59534C18.1907 6.91844 17.125 7.18184 15.984 7.38103Z" fill="#216206"/>
</svg>
