<svg width="18" height="18" viewBox="0 0 18 18" fill="none" xmlns="http://www.w3.org/2000/svg">
<path d="M14.8129 7.49999C14.8129 7.35081 14.7536 7.20774 14.6481 7.10225C14.5426 6.99676 14.3995 6.93749 14.2504 6.93749C14.1012 6.93749 13.9581 6.99676 13.8526 7.10225C13.7471 7.20774 13.6879 7.35081 13.6879 7.49999H14.8129ZM4.31286 7.49999C4.31286 7.35081 4.2536 7.20774 4.14811 7.10225C4.04262 6.99676 3.89954 6.93749 3.75036 6.93749C3.60118 6.93749 3.4581 6.99676 3.35261 7.10225C3.24712 7.20774 3.18786 7.35081 3.18786 7.49999H4.31286ZM15.3529 9.39749C15.4044 9.45276 15.4665 9.49709 15.5355 9.52783C15.6045 9.55857 15.6789 9.5751 15.7545 9.57644C15.83 9.57777 15.905 9.56388 15.9751 9.53559C16.0451 9.50729 16.1087 9.46519 16.1621 9.41177C16.2156 9.35836 16.2577 9.29473 16.286 9.22469C16.3142 9.15465 16.3281 9.07963 16.3268 9.0041C16.3255 8.92857 16.3089 8.85409 16.2782 8.78509C16.2475 8.71609 16.2031 8.65399 16.1479 8.60249L15.3529 9.39749ZM9.00036 2.24999L9.39786 1.85249C9.29239 1.74716 9.14942 1.68799 9.00036 1.68799C8.8513 1.68799 8.70833 1.74716 8.60286 1.85249L9.00036 2.24999ZM1.85286 8.60249C1.79759 8.65399 1.75327 8.71609 1.72252 8.78509C1.69178 8.85409 1.67525 8.92857 1.67392 9.0041C1.67258 9.07963 1.68648 9.15465 1.71477 9.22469C1.74306 9.29473 1.78517 9.35836 1.83858 9.41177C1.89199 9.46519 1.95562 9.50729 2.02566 9.53559C2.0957 9.56388 2.17072 9.57777 2.24625 9.57644C2.32178 9.5751 2.39626 9.55857 2.46526 9.52783C2.53426 9.49709 2.59636 9.45276 2.64786 9.39749L1.85286 8.60249ZM5.25036 16.3125H12.7504V15.1875H5.25036V16.3125ZM14.8129 14.25V7.49999H13.6879V14.25H14.8129ZM4.31286 14.25V7.49999H3.18786V14.25H4.31286ZM16.1479 8.60249L9.39786 1.85249L8.60286 2.64749L15.3529 9.39749L16.1479 8.60249ZM8.60286 1.85249L1.85286 8.60249L2.64786 9.39749L9.39786 2.64749L8.60286 1.85249ZM12.7504 16.3125C13.2974 16.3125 13.822 16.0952 14.2088 15.7084C14.5956 15.3216 14.8129 14.797 14.8129 14.25H13.6879C13.6879 14.7675 13.2679 15.1875 12.7504 15.1875V16.3125ZM5.25036 15.1875C4.73286 15.1875 4.31286 14.7675 4.31286 14.25H3.18786C3.18786 14.797 3.40516 15.3216 3.79195 15.7084C4.17875 16.0952 4.70335 16.3125 5.25036 16.3125V15.1875Z" fill="#F6F4F4"/>
</svg>
