<svg width="23" height="24" viewBox="0 0 23 24" fill="none" xmlns="http://www.w3.org/2000/svg">
<path d="M21.0834 3H1.91675V9H2.87508V20C2.87508 20.5304 3.07702 21.0391 3.43646 21.4142C3.7959 21.7893 4.28342 22 4.79175 22H18.2084C18.7167 22 19.2043 21.7893 19.5637 21.4142C19.9231 21.0391 20.1251 20.5304 20.1251 20V9H21.0834V3ZM3.83341 5H19.1667V7H3.83341V5ZM18.2084 20H4.79175V9H18.2084V20ZM8.62508 11H14.3751C14.3751 11.5304 14.1731 12.0391 13.8137 12.4142C13.4543 12.7893 12.9667 13 12.4584 13H10.5417C10.0334 13 9.54591 12.7893 9.18646 12.4142C8.82702 12.0391 8.62508 11.5304 8.62508 11Z" fill="#216206"/>
</svg>
