<svg width="22" height="18" viewBox="0 0 22 18" fill="none" xmlns="http://www.w3.org/2000/svg">
<path d="M10.5012 10.8944C11.5934 10.8944 12.4789 10.0463 12.4789 8.99995C12.4789 7.95366 11.5934 7.10547 10.5012 7.10547C9.4089 7.10547 8.52344 7.95366 8.52344 8.99995C8.52344 10.0463 9.4089 10.8944 10.5012 10.8944Z" stroke="#216206"/>
<mask id="path-2-inside-1_190_811" fill="white">
<path d="M3.97349 3.20289L4.22071 2.79178C4.12365 2.73803 4.0104 2.71747 3.89954 2.73347C3.78867 2.74948 3.68678 2.8011 3.61058 2.87988L3.97349 3.20289ZM1.99675 6.48414L1.52407 6.34394C1.49117 6.44644 1.49556 6.55661 1.53651 6.65641C1.57747 6.75621 1.65257 6.83974 1.74953 6.89334L1.99675 6.48414ZM1.99477 11.5149L1.74755 11.1048C1.65038 11.1584 1.57514 11.2421 1.53417 11.3421C1.4932 11.4421 1.48894 11.5525 1.52209 11.6551L1.99477 11.5149ZM3.9725 14.7962L3.60959 15.1183C3.68579 15.197 3.78768 15.2487 3.89855 15.2647C4.00941 15.2807 4.12266 15.2601 4.21972 15.2063L3.9725 14.7962ZM8.52128 17.3111H8.02685C8.02679 17.4187 8.06495 17.523 8.13504 17.607C8.20513 17.6911 8.30298 17.7497 8.41251 17.7734L8.52128 17.3111ZM12.4777 17.313L12.5875 17.7753C12.6968 17.7514 12.7945 17.6927 12.8644 17.6087C12.9343 17.5247 12.9723 17.4204 12.9722 17.313H12.4787H12.4777ZM17.0275 14.7971L16.7803 15.2073C16.8773 15.2611 16.9906 15.2816 17.1015 15.2656C17.2123 15.2496 17.3142 15.198 17.3904 15.1192L17.0275 14.7971ZM19.0033 11.514L19.4759 11.6542C19.5088 11.5517 19.5044 11.4415 19.4635 11.3417C19.4225 11.2419 19.3474 11.1584 19.2505 11.1048L19.0033 11.514ZM19.0052 6.48319L19.2524 6.89334C19.3496 6.8397 19.4249 6.75601 19.4658 6.65601C19.5068 6.556 19.5111 6.44563 19.4779 6.343L19.0052 6.48319ZM17.0275 3.20099L17.3904 2.87893C17.3142 2.80016 17.2123 2.74853 17.1015 2.73253C16.9906 2.71652 16.8773 2.73708 16.7803 2.79084L17.0275 3.20099ZM12.4787 0.687956H12.9732C12.973 0.580702 12.9349 0.476662 12.865 0.392861C12.7952 0.309059 12.6977 0.250458 12.5885 0.226648L12.4787 0.687956ZM8.52326 0.686061L8.41349 0.223806C8.30397 0.247467 8.20612 0.306127 8.13603 0.39014C8.06594 0.474153 8.02778 0.578515 8.02784 0.686061H8.52227H8.52326ZM2.46943 6.62433C2.84044 5.46975 3.47822 4.41008 4.33541 3.524L3.61058 2.87988C2.65222 3.87011 1.93907 5.05349 1.52407 6.34394L2.46943 6.62433ZM3.22096 13.0258C2.9067 12.5043 2.65429 11.9509 2.46844 11.3757L1.52308 11.6561C1.7314 12.2987 2.01399 12.9169 2.36559 13.4994L3.22096 13.0258ZM4.3364 14.4751C3.90973 14.0333 3.53494 13.5471 3.22096 13.0258L2.36559 13.4994C2.71629 14.0821 3.13387 14.6254 3.61058 15.1192L4.3364 14.4751ZM12.369 16.8527C11.1393 17.1208 9.86238 17.1202 8.63302 16.8508L8.41349 17.7734C9.78728 18.0746 11.2142 18.0756 12.5885 17.7762L12.369 16.8527ZM18.5326 11.3757C18.1615 12.5303 17.5238 13.5899 16.6666 14.476L17.3914 15.1201C18.3497 14.1299 19.0629 12.9456 19.4779 11.6551L18.5326 11.3757ZM17.781 4.97423C18.1014 5.50753 18.3516 6.06072 18.5345 6.62433L19.4789 6.34394C19.2707 5.70134 18.9881 5.08305 18.6364 4.50061L17.781 4.97423ZM16.6656 3.52495C17.0926 3.96652 17.4674 4.45267 17.781 4.97423L18.6364 4.50061C18.2857 3.91791 17.8681 3.37461 17.3914 2.88082L16.6656 3.52495ZM8.63302 1.14737C9.86268 0.879208 11.1396 0.879855 12.369 1.14926L12.5885 0.226648C11.2147 -0.0745871 9.78773 -0.0755584 8.41349 0.223806L8.63302 1.14737ZM9.01769 2.43751V0.685114H8.02883V2.43751H9.01769ZM5.80388 3.66703L4.22071 2.79178L3.72627 3.61115L5.30846 4.48735L5.80388 3.66703ZM3.33172 10.2295L1.74755 11.1048L2.24298 11.9251L3.82516 11.0498L3.33172 10.2295ZM3.82615 6.94828L2.24396 6.07398L1.74953 6.89429L3.33172 7.7686L3.82615 6.94828ZM9.01769 17.3111V15.5616H8.02883V17.3111H9.01769ZM5.30945 13.5108L3.72627 14.386L4.22071 15.2063L5.80289 14.3311L5.30945 13.5108ZM17.2757 14.387L15.6925 13.5108L15.1981 14.332L16.7803 15.2073L17.2757 14.387ZM12.9732 17.314V15.5616H11.9843V17.314H12.9732ZM18.759 6.07303L17.1758 6.94828L17.6703 7.7686L19.2524 6.89334L18.759 6.07303ZM19.2515 11.1038L17.6703 10.2314L17.1758 11.0517L18.758 11.926L19.2524 11.1057L19.2515 11.1038ZM12.9732 2.43751V0.687956H11.9843V2.43751H12.9732ZM16.7813 2.79178L15.1981 3.66798L15.6925 4.48829L17.2757 3.61209L16.7813 2.79178ZM11.9843 2.43751C11.9843 4.26001 14.0441 5.39954 15.6925 4.48829L15.1981 3.66798C14.9725 3.79273 14.7167 3.85838 14.4562 3.85834C14.1958 3.8583 13.9399 3.79257 13.7144 3.66775C13.4889 3.54294 13.3016 3.36344 13.1715 3.14732C13.0414 2.93119 12.973 2.687 12.9732 2.43751H11.9843ZM17.1758 6.94923C15.5274 7.86048 15.5274 10.1395 17.1758 11.0508L17.6703 10.2305C17.4448 10.1058 17.2576 9.9264 17.1274 9.71041C16.9972 9.49442 16.9287 9.24941 16.9287 9.00001C16.9287 8.75061 16.9972 8.5056 17.1274 8.28961C17.2576 8.07362 17.4448 7.89426 17.6703 7.76954L17.1758 6.94923ZM15.6925 13.5117C14.0441 12.6005 11.9843 13.7381 11.9843 15.5616H12.9732C12.9732 15.3122 13.0417 15.0681 13.1719 14.8521C13.3021 14.6361 13.4893 14.4567 13.7148 14.332C13.9403 14.2073 14.1961 14.1417 14.4565 14.1417C14.7168 14.1417 14.9726 14.2073 15.1981 14.332L15.6925 13.5117ZM9.01769 15.5616C9.01769 13.7391 6.95788 12.6005 5.30945 13.5117L5.80388 14.332C6.02944 14.2073 6.28531 14.1416 6.54577 14.1417C6.80622 14.1417 7.06207 14.2075 7.28759 14.3323C7.51311 14.4571 7.70034 14.6366 7.83046 14.8527C7.96058 15.0688 8.02899 15.314 8.02883 15.5635H9.01769V15.5616ZM3.82615 11.0508C5.47459 10.1395 5.47459 7.86048 3.82615 6.94923L3.33172 7.76954C4.32058 8.3161 4.32058 9.68203 3.33172 10.2295L3.82615 11.0508ZM8.02883 2.43751C8.02865 2.68684 7.95998 2.93174 7.82972 3.1476C7.69946 3.36346 7.51219 3.54269 7.28673 3.66728C7.06127 3.79187 6.80556 3.85744 6.54527 3.85739C6.28499 3.85735 6.02929 3.7917 5.80388 3.66703L5.30945 4.48829C6.95788 5.39954 9.01769 4.26096 9.01769 2.43751H8.02883Z"/>
</mask>
<path d="M3.97349 3.20289L4.22071 2.79178C4.12365 2.73803 4.0104 2.71747 3.89954 2.73347C3.78867 2.74948 3.68678 2.8011 3.61058 2.87988L3.97349 3.20289ZM1.99675 6.48414L1.52407 6.34394C1.49117 6.44644 1.49556 6.55661 1.53651 6.65641C1.57747 6.75621 1.65257 6.83974 1.74953 6.89334L1.99675 6.48414ZM1.99477 11.5149L1.74755 11.1048C1.65038 11.1584 1.57514 11.2421 1.53417 11.3421C1.4932 11.4421 1.48894 11.5525 1.52209 11.6551L1.99477 11.5149ZM3.9725 14.7962L3.60959 15.1183C3.68579 15.197 3.78768 15.2487 3.89855 15.2647C4.00941 15.2807 4.12266 15.2601 4.21972 15.2063L3.9725 14.7962ZM8.52128 17.3111H8.02685C8.02679 17.4187 8.06495 17.523 8.13504 17.607C8.20513 17.6911 8.30298 17.7497 8.41251 17.7734L8.52128 17.3111ZM12.4777 17.313L12.5875 17.7753C12.6968 17.7514 12.7945 17.6927 12.8644 17.6087C12.9343 17.5247 12.9723 17.4204 12.9722 17.313H12.4787H12.4777ZM17.0275 14.7971L16.7803 15.2073C16.8773 15.2611 16.9906 15.2816 17.1015 15.2656C17.2123 15.2496 17.3142 15.198 17.3904 15.1192L17.0275 14.7971ZM19.0033 11.514L19.4759 11.6542C19.5088 11.5517 19.5044 11.4415 19.4635 11.3417C19.4225 11.2419 19.3474 11.1584 19.2505 11.1048L19.0033 11.514ZM19.0052 6.48319L19.2524 6.89334C19.3496 6.8397 19.4249 6.75601 19.4658 6.65601C19.5068 6.556 19.5111 6.44563 19.4779 6.343L19.0052 6.48319ZM17.0275 3.20099L17.3904 2.87893C17.3142 2.80016 17.2123 2.74853 17.1015 2.73253C16.9906 2.71652 16.8773 2.73708 16.7803 2.79084L17.0275 3.20099ZM12.4787 0.687956H12.9732C12.973 0.580702 12.9349 0.476662 12.865 0.392861C12.7952 0.309059 12.6977 0.250458 12.5885 0.226648L12.4787 0.687956ZM8.52326 0.686061L8.41349 0.223806C8.30397 0.247467 8.20612 0.306127 8.13603 0.39014C8.06594 0.474153 8.02778 0.578515 8.02784 0.686061H8.52227H8.52326ZM2.46943 6.62433C2.84044 5.46975 3.47822 4.41008 4.33541 3.524L3.61058 2.87988C2.65222 3.87011 1.93907 5.05349 1.52407 6.34394L2.46943 6.62433ZM3.22096 13.0258C2.9067 12.5043 2.65429 11.9509 2.46844 11.3757L1.52308 11.6561C1.7314 12.2987 2.01399 12.9169 2.36559 13.4994L3.22096 13.0258ZM4.3364 14.4751C3.90973 14.0333 3.53494 13.5471 3.22096 13.0258L2.36559 13.4994C2.71629 14.0821 3.13387 14.6254 3.61058 15.1192L4.3364 14.4751ZM12.369 16.8527C11.1393 17.1208 9.86238 17.1202 8.63302 16.8508L8.41349 17.7734C9.78728 18.0746 11.2142 18.0756 12.5885 17.7762L12.369 16.8527ZM18.5326 11.3757C18.1615 12.5303 17.5238 13.5899 16.6666 14.476L17.3914 15.1201C18.3497 14.1299 19.0629 12.9456 19.4779 11.6551L18.5326 11.3757ZM17.781 4.97423C18.1014 5.50753 18.3516 6.06072 18.5345 6.62433L19.4789 6.34394C19.2707 5.70134 18.9881 5.08305 18.6364 4.50061L17.781 4.97423ZM16.6656 3.52495C17.0926 3.96652 17.4674 4.45267 17.781 4.97423L18.6364 4.50061C18.2857 3.91791 17.8681 3.37461 17.3914 2.88082L16.6656 3.52495ZM8.63302 1.14737C9.86268 0.879208 11.1396 0.879855 12.369 1.14926L12.5885 0.226648C11.2147 -0.0745871 9.78773 -0.0755584 8.41349 0.223806L8.63302 1.14737ZM9.01769 2.43751V0.685114H8.02883V2.43751H9.01769ZM5.80388 3.66703L4.22071 2.79178L3.72627 3.61115L5.30846 4.48735L5.80388 3.66703ZM3.33172 10.2295L1.74755 11.1048L2.24298 11.9251L3.82516 11.0498L3.33172 10.2295ZM3.82615 6.94828L2.24396 6.07398L1.74953 6.89429L3.33172 7.7686L3.82615 6.94828ZM9.01769 17.3111V15.5616H8.02883V17.3111H9.01769ZM5.30945 13.5108L3.72627 14.386L4.22071 15.2063L5.80289 14.3311L5.30945 13.5108ZM17.2757 14.387L15.6925 13.5108L15.1981 14.332L16.7803 15.2073L17.2757 14.387ZM12.9732 17.314V15.5616H11.9843V17.314H12.9732ZM18.759 6.07303L17.1758 6.94828L17.6703 7.7686L19.2524 6.89334L18.759 6.07303ZM19.2515 11.1038L17.6703 10.2314L17.1758 11.0517L18.758 11.926L19.2524 11.1057L19.2515 11.1038ZM12.9732 2.43751V0.687956H11.9843V2.43751H12.9732ZM16.7813 2.79178L15.1981 3.66798L15.6925 4.48829L17.2757 3.61209L16.7813 2.79178ZM11.9843 2.43751C11.9843 4.26001 14.0441 5.39954 15.6925 4.48829L15.1981 3.66798C14.9725 3.79273 14.7167 3.85838 14.4562 3.85834C14.1958 3.8583 13.9399 3.79257 13.7144 3.66775C13.4889 3.54294 13.3016 3.36344 13.1715 3.14732C13.0414 2.93119 12.973 2.687 12.9732 2.43751H11.9843ZM17.1758 6.94923C15.5274 7.86048 15.5274 10.1395 17.1758 11.0508L17.6703 10.2305C17.4448 10.1058 17.2576 9.9264 17.1274 9.71041C16.9972 9.49442 16.9287 9.24941 16.9287 9.00001C16.9287 8.75061 16.9972 8.5056 17.1274 8.28961C17.2576 8.07362 17.4448 7.89426 17.6703 7.76954L17.1758 6.94923ZM15.6925 13.5117C14.0441 12.6005 11.9843 13.7381 11.9843 15.5616H12.9732C12.9732 15.3122 13.0417 15.0681 13.1719 14.8521C13.3021 14.6361 13.4893 14.4567 13.7148 14.332C13.9403 14.2073 14.1961 14.1417 14.4565 14.1417C14.7168 14.1417 14.9726 14.2073 15.1981 14.332L15.6925 13.5117ZM9.01769 15.5616C9.01769 13.7391 6.95788 12.6005 5.30945 13.5117L5.80388 14.332C6.02944 14.2073 6.28531 14.1416 6.54577 14.1417C6.80622 14.1417 7.06207 14.2075 7.28759 14.3323C7.51311 14.4571 7.70034 14.6366 7.83046 14.8527C7.96058 15.0688 8.02899 15.314 8.02883 15.5635H9.01769V15.5616ZM3.82615 11.0508C5.47459 10.1395 5.47459 7.86048 3.82615 6.94923L3.33172 7.76954C4.32058 8.3161 4.32058 9.68203 3.33172 10.2295L3.82615 11.0508ZM8.02883 2.43751C8.02865 2.68684 7.95998 2.93174 7.82972 3.1476C7.69946 3.36346 7.51219 3.54269 7.28673 3.66728C7.06127 3.79187 6.80556 3.85744 6.54527 3.85739C6.28499 3.85735 6.02929 3.7917 5.80388 3.66703L5.30945 4.48829C6.95788 5.39954 9.01769 4.26096 9.01769 2.43751H8.02883Z" fill="#0D0D0D"/>
<path d="M12.4787 1.93751H11.9843V2.93751H12.4787V1.93751ZM16.9948 10.3825L16.7476 10.7927L17.6041 11.3089L17.8513 10.8987L16.9948 10.3825ZM15.0171 13.6638L14.7699 14.0739L15.6263 14.5902L15.8735 14.18L15.0171 13.6638ZM3.1507 10.8987L3.39792 11.3089L4.25438 10.7927L4.00716 10.3825L3.1507 10.8987ZM5.12843 3.82003L4.88122 4.23019L5.73767 4.7464L5.98489 4.33625L5.12843 3.82003ZM2.6078 13.9368L3.46317 13.4632L2.97876 12.5884L2.12339 13.062L2.6078 13.9368ZM18.3942 4.06319L17.5388 4.53681L18.0232 5.41165L18.8786 4.93803L18.3942 4.06319ZM8.02883 2.93751H9.01769V1.93751H8.02883V2.93751ZM12.9732 15.0616H11.9843V16.0616H12.9732V15.0616ZM11.9843 2.93751H12.9732V1.93751H11.9843V2.93751ZM14.7699 3.92609L15.2643 4.7464L16.1208 4.23019L15.6263 3.40987L14.7699 3.92609ZM3.97349 3.20289L3.30864 3.94987L4.20918 4.75139L4.83047 3.71823L3.97349 3.20289ZM1.99675 6.48414L2.85268 7.00123L3.52193 5.89343L2.2811 5.52541L1.99675 6.48414ZM1.52407 6.34394L0.572086 6.0378L0.571914 6.03833L1.52407 6.34394ZM1.74953 6.89334L1.26572 7.76852L2.10788 8.23407L2.60546 7.41044L1.74953 6.89334ZM1.99477 11.5149L2.27912 12.4737L3.51864 12.106L2.85123 10.9987L1.99477 11.5149ZM1.52209 11.6551L0.570501 11.9625L0.870548 12.8914L1.80644 12.6139L1.52209 11.6551ZM3.9725 14.7962L4.82896 14.28L4.20818 13.25L3.30874 14.0482L3.9725 14.7962ZM3.60959 15.1183L2.94583 14.3703L2.16499 15.0632L2.89088 15.8136L3.60959 15.1183ZM4.21972 15.2063L4.7042 16.0811L5.61167 15.5786L5.07617 14.6901L4.21972 15.2063ZM8.52128 17.3111L9.49469 17.5402L9.78391 16.3111H8.52128V17.3111ZM8.02685 17.3111V16.3111H7.02737L7.02685 17.3106L8.02685 17.3111ZM8.41251 17.7734L8.20134 18.7508L9.16102 18.9582L9.38592 18.0024L8.41251 17.7734ZM12.4777 17.313V16.313H11.2125L11.5048 17.544L12.4777 17.313ZM12.5875 17.7753L11.6145 18.0063L11.8414 18.9615L12.8006 18.7523L12.5875 17.7753ZM12.9722 17.313L13.9722 17.312L13.9712 16.313H12.9722V17.313ZM17.0275 14.7971L17.6913 14.0492L16.7918 13.251L16.171 14.2809L17.0275 14.7971ZM17.3904 15.1192L18.1091 15.8145L18.835 15.0642L18.0542 14.3713L17.3904 15.1192ZM19.0033 11.514L18.1473 10.9969L17.4781 12.1047L18.7189 12.4727L19.0033 11.514ZM19.4759 11.6542L19.1916 12.6129L20.1292 12.891L20.4281 11.9598L19.4759 11.6542ZM19.2505 11.1048L19.7343 10.2296L18.8921 9.76406L18.3945 10.5877L19.2505 11.1048ZM19.0052 6.48319L18.7209 5.52447L17.4814 5.8921L18.1488 6.99941L19.0052 6.48319ZM19.4779 6.343L20.4295 6.03563L20.1294 5.1067L19.1936 5.38428L19.4779 6.343ZM17.0275 3.20099L16.171 3.71721L16.7918 4.74714L17.6913 3.94894L17.0275 3.20099ZM17.3904 2.87893L18.0542 3.62688L18.835 2.93393L18.1091 2.18362L17.3904 2.87893ZM16.7803 2.79084L16.2958 1.91604L15.3883 2.41862L15.9238 3.30705L16.7803 2.79084ZM12.4787 0.687956L11.5059 0.456477L11.2129 1.68796H12.4787V0.687956ZM12.9732 0.687956H13.9732L13.9732 0.686863L12.9732 0.687956ZM8.52326 0.686061V1.68606H9.78852L9.49621 0.455031L8.52326 0.686061ZM8.02784 0.686061L7.02784 0.686583L7.02836 1.68606H8.02784V0.686061ZM17.1758 11.0508L16.692 11.926L17.535 12.392L18.0323 11.567L17.1758 11.0508ZM3.82615 11.0508L2.96943 11.5666L3.4665 12.3922L4.30994 11.926L3.82615 11.0508ZM5.30945 4.48829L4.45273 3.97251L3.91753 4.86147L4.82565 5.36348L5.30945 4.48829ZM2.46943 6.62433L2.18508 7.58305L3.12238 7.86104L3.42148 6.93026L2.46943 6.62433ZM4.33541 3.524L5.05414 4.2193L5.7795 3.46949L4.99968 2.7765L4.33541 3.524ZM3.22096 13.0258L4.07761 12.5099L4.07744 12.5096L3.22096 13.0258ZM2.46844 11.3757L3.41999 11.0682L3.11988 10.1394L2.18409 10.417L2.46844 11.3757ZM1.52308 11.6561L1.23873 10.6974L0.255562 10.989L0.571823 11.9645L1.52308 11.6561ZM2.36559 13.4994L3.22238 12.9837L3.22171 12.9826L2.36559 13.4994ZM4.3364 14.4751L5.00016 15.223L5.7803 14.5307L5.05574 13.7804L4.3364 14.4751ZM3.61058 15.1192L2.89112 15.8137L3.55712 16.5036L4.27433 15.8672L3.61058 15.1192ZM12.369 16.8527L13.3418 16.6214L13.1149 15.6665L12.1559 15.8756L12.369 16.8527ZM8.63302 16.8508L8.84709 15.8739L7.88756 15.6637L7.66018 16.6193L8.63302 16.8508ZM8.41349 17.7734L7.44065 17.5419L7.20503 18.5322L8.19933 18.7502L8.41349 17.7734ZM12.5885 17.7762L12.8013 18.7533L13.797 18.5364L13.5614 17.545L12.5885 17.7762ZM18.5326 11.3757L18.816 10.4167L17.8793 10.1398L17.5805 11.0698L18.5326 11.3757ZM16.6666 14.476L15.9478 13.7807L15.2225 14.5305L16.0023 15.2235L16.6666 14.476ZM17.3914 15.1201L16.7271 15.8676L17.4435 16.5043L18.11 15.8156L17.3914 15.1201ZM19.4779 11.6551L20.4299 11.9613L20.7434 10.9864L19.7614 10.6962L19.4779 11.6551ZM17.781 4.97423L18.6382 4.45925L18.638 4.4589L17.781 4.97423ZM18.5345 6.62433L17.5834 6.93306L17.8844 7.86049L18.8192 7.58297L18.5345 6.62433ZM19.4789 6.34394L19.7635 7.30258L20.7462 7.01083L20.4302 6.03567L19.4789 6.34394ZM18.6364 4.50061L17.7796 5.01624L17.7803 5.0175L18.6364 4.50061ZM16.6656 3.52495L16.0018 2.777L15.2212 3.46978L15.9467 4.22009L16.6656 3.52495ZM17.3914 2.88082L18.1108 2.18625L17.4448 1.49642L16.7276 2.13287L17.3914 2.88082ZM8.63302 1.14737L7.66013 1.37862L7.88711 2.33354L8.84609 2.12441L8.63302 1.14737ZM12.369 1.14926L12.1549 2.12608L13.1144 2.33636L13.3418 1.38074L12.369 1.14926ZM9.01769 0.685114H10.0177V-0.314886H9.01769V0.685114ZM8.02883 0.685114V-0.314886H7.02883V0.685114H8.02883ZM8.02883 2.43751L9.02883 2.43824V2.43751H8.02883ZM5.80388 3.66703L6.28785 2.79195L6.28771 2.79187L5.80388 3.66703ZM3.72627 3.61115L2.87008 3.09449L2.33384 3.98313L3.24181 4.48596L3.72627 3.61115ZM5.30846 4.48735L4.82399 5.36216L5.66655 5.82876L6.16446 5.00432L5.30846 4.48735ZM2.24298 11.9251L1.38697 12.4421L1.88466 13.2661L2.72704 12.8001L2.24298 11.9251ZM3.82516 11.0498L4.30922 11.9249L5.21657 11.4229L4.68207 10.5344L3.82516 11.0498ZM3.82615 6.94828L4.68261 7.4645L5.21861 6.57522L4.30981 6.07303L3.82615 6.94828ZM2.24396 6.07398L2.72762 5.19872L1.88467 4.73291L1.38751 5.55776L2.24396 6.07398ZM1.74953 6.89429L0.893074 6.37807L0.357073 7.26735L1.26587 7.76955L1.74953 6.89429ZM3.33172 7.7686L2.84806 8.64385L3.69101 9.10966L4.18817 8.28481L3.33172 7.7686ZM9.01769 17.3111V18.3111H10.0177V17.3111H9.01769ZM8.02883 15.5616V14.5616H7.02883V15.5616H8.02883ZM8.02883 17.3111H7.02883V18.3111H8.02883V17.3111ZM5.30945 13.5108L6.16636 12.9953L5.66939 12.1691L4.82562 12.6356L5.30945 13.5108ZM3.72627 14.386L3.24244 13.5109L2.33392 14.0132L2.86982 14.9023L3.72627 14.386ZM4.22071 15.2063L3.36425 15.7226L3.86164 16.5478L4.70477 16.0814L4.22071 15.2063ZM5.80289 14.3311L6.28695 15.2061L7.1943 14.7042L6.6598 13.8156L5.80289 14.3311ZM17.2757 14.387L18.1317 14.904L18.6686 14.0149L17.7599 13.512L17.2757 14.387ZM15.6925 13.5108L16.1768 12.6358L15.3331 12.1689L14.8358 12.995L15.6925 13.5108ZM12.9732 17.314V18.314H13.9732V17.314H12.9732ZM12.9732 15.5616L11.9732 15.5615V15.5616H12.9732ZM11.9843 17.314H10.9843V18.314H11.9843V17.314ZM18.759 6.07303L19.6159 5.55757L19.1189 4.73139L18.2752 5.19787L18.759 6.07303ZM17.1758 6.94828L16.692 6.07312L15.7835 6.5754L16.3194 7.4645L17.1758 6.94828ZM17.6703 7.7686L16.8138 8.28481L17.3112 9.11004L18.1543 8.64363L17.6703 7.7686ZM19.2515 11.1038L20.1381 10.6413L19.9986 10.3739L19.7345 10.2283L19.2515 11.1038ZM17.6703 10.2314L18.1534 9.35586L17.3106 8.8909L16.8138 9.71521L17.6703 10.2314ZM17.1758 11.0517L16.3194 10.5355L15.7834 11.4248L16.6922 11.927L17.1758 11.0517ZM18.758 11.926L18.2744 12.8013L19.1173 13.2671L19.6145 12.4423L18.758 11.926ZM19.2524 11.1057L20.1089 11.622L20.3988 11.141L20.139 10.6432L19.2524 11.1057ZM12.9732 2.43751L13.9732 2.43818V2.43751H12.9732ZM11.9843 0.687956V-0.312044H10.9843V0.687956H11.9843ZM16.7813 2.79178L17.6377 2.27556L17.1402 1.45018L16.297 1.91684L16.7813 2.79178ZM15.1981 3.66798L15.6821 4.54307L15.6823 4.54292L15.1981 3.66798ZM15.6925 4.48829L16.1763 5.36348L16.1768 5.36323L15.6925 4.48829ZM17.2757 3.61209L17.7599 4.48703L18.6678 3.98457L18.1322 3.09588L17.2757 3.61209ZM17.1758 6.94923L18.0323 6.43301L17.535 5.60804L16.692 6.07405L17.1758 6.94923ZM17.6703 10.2305L18.5267 10.7467L19.0625 9.85777L18.1543 9.35542L17.6703 10.2305ZM17.6703 7.76954L18.1543 8.64461L19.0625 8.14225L18.5267 7.25333L17.6703 7.76954ZM15.6925 13.5117L16.549 14.028L17.0849 13.1388L16.1763 12.6365L15.6925 13.5117ZM5.30945 13.5117L4.82565 12.6365L3.91707 13.1388L4.45299 14.028L5.30945 13.5117ZM5.80388 14.332L4.94742 14.8483L5.44476 15.6734L6.28785 15.2071L5.80388 14.332ZM8.02883 15.5635L7.02883 15.5628L7.02816 16.5635H8.02883V15.5635ZM9.01769 15.5635V16.5635H10.0177V15.5635H9.01769ZM3.82615 6.94923L4.30994 6.07405L3.46693 5.60804L2.96969 6.43301L3.82615 6.94923ZM3.33172 7.76954L2.47526 7.25333L1.93931 8.14252L2.84797 8.64476L3.33172 7.76954ZM4.83047 3.71823L5.07769 3.30713L3.36372 2.27644L3.11651 2.68754L4.83047 3.71823ZM4.70519 1.91698C4.41519 1.75637 4.08133 1.69686 3.75663 1.74374L4.04244 3.72321C3.93946 3.73808 3.8321 3.71968 3.73622 3.66658L4.70519 1.91698ZM3.75663 1.74374C3.43173 1.79065 3.12572 1.94284 2.89186 2.18457L4.32929 3.57518C4.24785 3.65937 4.14561 3.70831 4.04244 3.72321L3.75663 1.74374ZM2.94573 3.62686L3.30864 3.94987L4.63834 2.45591L4.27542 2.1329L2.94573 3.62686ZM2.2811 5.52541L1.80842 5.38522L1.23972 7.30266L1.7124 7.44286L2.2811 5.52541ZM0.571914 6.03833C0.466801 6.36582 0.481135 6.71867 0.611384 7.03606L2.46164 6.27676C2.50998 6.39454 2.51554 6.52707 2.47623 6.64956L0.571914 6.03833ZM0.611384 7.03606C0.741258 7.35253 0.975377 7.60801 1.26572 7.76852L2.23334 6.01817C2.32977 6.07148 2.41368 6.15989 2.46164 6.27676L0.611384 7.03606ZM2.60546 7.41044L2.85268 7.00123L1.14082 5.96704L0.893603 6.37625L2.60546 7.41044ZM2.85123 10.9987L2.60401 10.5886L0.891097 11.621L1.13831 12.0312L2.85123 10.9987ZM1.26426 10.2293C0.973304 10.3899 0.738731 10.6459 0.608812 10.963L2.45953 11.7212C2.41155 11.8383 2.32747 11.9269 2.23085 11.9802L1.26426 10.2293ZM0.608812 10.963C0.478515 11.2811 0.464598 11.6346 0.570501 11.9625L2.47368 11.3478C2.51329 11.4704 2.50789 11.6032 2.45953 11.7212L0.608812 10.963ZM1.80644 12.6139L2.27912 12.4737L1.71042 10.5562L1.23774 10.6964L1.80644 12.6139ZM3.30874 14.0482L2.94583 14.3703L4.27334 15.8662L4.63626 15.5441L3.30874 14.0482ZM2.89088 15.8136C3.12472 16.0553 3.43073 16.2075 3.75564 16.2544L4.04145 14.2749C4.14464 14.2898 4.24686 14.3388 4.3283 14.4229L2.89088 15.8136ZM3.75564 16.2544C4.08035 16.3013 4.41421 16.2418 4.7042 16.0811L3.73523 14.3316C3.83111 14.2785 3.93847 14.2601 4.04145 14.2749L3.75564 16.2544ZM5.07617 14.6901L4.82896 14.28L3.11604 15.3124L3.36326 15.7226L5.07617 14.6901ZM8.52128 16.3111H8.02685V18.3111H8.52128V16.3111ZM7.02685 17.3106C7.02667 17.6569 7.14983 17.9871 7.36718 18.2477L8.9029 16.9664C8.98006 17.0589 9.02692 17.1805 9.02685 17.3116L7.02685 17.3106ZM7.36718 18.2477C7.58378 18.5073 7.87958 18.6813 8.20134 18.7508L8.62367 16.7959C8.72639 16.8181 8.82648 16.8748 8.9029 16.9664L7.36718 18.2477ZM9.38592 18.0024L9.49469 17.5402L7.54787 17.0821L7.43909 17.5443L9.38592 18.0024ZM11.5048 17.544L11.6145 18.0063L13.5604 17.5442L13.4507 17.082L11.5048 17.544ZM12.8006 18.7523C13.1218 18.6822 13.417 18.5079 13.633 18.2483L12.0957 16.969C12.1719 16.8774 12.2718 16.8206 12.3744 16.7982L12.8006 18.7523ZM13.633 18.2483C13.8498 17.9878 13.9725 17.6579 13.9722 17.312L11.9722 17.314C11.972 17.183 12.0187 17.0615 12.0957 16.969L13.633 18.2483ZM12.9722 16.313H12.4787V18.313H12.9722V16.313ZM12.4787 16.313H12.4777V18.313H12.4787V16.313ZM16.171 14.2809L15.9238 14.6911L17.6367 15.7235L17.884 15.3134L16.171 14.2809ZM16.2958 16.0821C16.5858 16.2427 16.9197 16.3022 17.2444 16.2553L16.9586 14.2759C17.0615 14.261 17.1689 14.2794 17.2648 14.3325L16.2958 16.0821ZM17.2444 16.2553C17.5693 16.2084 17.8753 16.0562 18.1091 15.8145L16.6717 14.4239C16.7531 14.3397 16.8554 14.2908 16.9586 14.2759L17.2444 16.2553ZM18.0542 14.3713L17.6913 14.0492L16.3637 15.5451L16.7267 15.8671L18.0542 14.3713ZM18.7189 12.4727L19.1916 12.6129L19.7603 10.6955L19.2876 10.5553L18.7189 12.4727ZM20.4281 11.9598C20.5332 11.6323 20.5189 11.2795 20.3886 10.9621L18.5384 11.7214C18.49 11.6036 18.4845 11.4711 18.5238 11.3486L20.4281 11.9598ZM20.3886 10.9621C20.2587 10.6456 20.0246 10.3901 19.7343 10.2296L18.7667 11.98C18.6702 11.9267 18.5863 11.8382 18.5384 11.7214L20.3886 10.9621ZM18.3945 10.5877L18.1473 10.9969L19.8592 12.0311L20.1064 11.6219L18.3945 10.5877ZM18.1488 6.99941L18.396 7.40956L20.1089 6.37713L19.8617 5.96697L18.1488 6.99941ZM19.7357 7.7688C20.0267 7.60818 20.2613 7.35222 20.3912 7.0351L18.5405 6.27691C18.5884 6.1598 18.6725 6.07123 18.7692 6.01789L19.7357 7.7688ZM20.3912 7.0351C20.5215 6.71704 20.5354 6.3635 20.4295 6.03563L18.5263 6.65036C18.4867 6.52775 18.4921 6.39496 18.5405 6.27691L20.3912 7.0351ZM19.1936 5.38428L18.7209 5.52447L19.2896 7.44191L19.7623 7.30172L19.1936 5.38428ZM17.6913 3.94894L18.0542 3.62688L16.7267 2.13098L16.3637 2.45304L17.6913 3.94894ZM18.1091 2.18362C17.8753 1.9419 17.5693 1.7897 17.2444 1.74279L16.9586 3.72226C16.8554 3.70737 16.7531 3.65842 16.6717 3.57424L18.1091 2.18362ZM17.2444 1.74279C16.9197 1.69591 16.5858 1.75543 16.2958 1.91604L17.2648 3.66563C17.1689 3.71874 17.0615 3.73713 16.9586 3.72226L17.2444 1.74279ZM15.9238 3.30705L16.171 3.71721L17.884 2.68477L17.6367 2.27462L15.9238 3.30705ZM12.4787 1.68796H12.9732V-0.312044H12.4787V1.68796ZM13.9732 0.686863C13.9728 0.341554 13.8498 0.0123013 13.6331 -0.247565L12.097 1.03329C12.0201 0.941023 11.9733 0.819849 11.9732 0.689048L13.9732 0.686863ZM13.6331 -0.247565C13.4171 -0.506536 13.1224 -0.680424 12.8016 -0.750385L12.3754 1.20368C12.273 1.18134 12.1732 1.12465 12.097 1.03329L13.6331 -0.247565ZM11.6156 -0.00483068L11.5059 0.456477L13.4516 0.919434L13.5613 0.458127L11.6156 -0.00483068ZM9.49621 0.455031L9.38644 -0.00722335L7.44055 0.454836L7.55031 0.917091L9.49621 0.455031ZM8.20233 -0.753645C7.88056 -0.684131 7.58477 -0.510094 7.36817 -0.250481L8.90389 1.03076C8.82748 1.12235 8.72739 1.17906 8.62466 1.20126L8.20233 -0.753645ZM7.36817 -0.250481C7.15083 0.0100338 7.02766 0.340316 7.02784 0.686583L9.02784 0.685539C9.0279 0.816715 8.98105 0.938273 8.90389 1.03076L7.36817 -0.250481ZM8.02784 1.68606H8.52227V-0.313939H8.02784V1.68606ZM8.52227 1.68606H8.52326V-0.313939H8.52227V1.68606ZM3.42148 6.93026C3.74479 5.92413 4.30171 4.99708 5.05414 4.2193L3.61669 2.82871C2.65474 3.82307 1.93609 5.01537 1.51737 6.31839L3.42148 6.93026ZM4.99968 2.7765L4.27484 2.13238L2.94631 3.62737L3.67115 4.2715L4.99968 2.7765ZM2.892 2.18443C1.82904 3.28275 1.03489 4.59868 0.572086 6.0378L2.47605 6.65009C2.84324 5.5083 3.47541 4.45747 4.32916 3.57532L2.892 2.18443ZM1.23972 7.30266L2.18508 7.58305L2.75377 5.66561L1.80842 5.38522L1.23972 7.30266ZM4.07744 12.5096C3.80248 12.0534 3.58209 11.5699 3.41999 11.0682L1.51688 11.6832C1.72649 12.3319 2.01092 12.9553 2.36448 13.542L4.07744 12.5096ZM2.18409 10.417L1.23873 10.6974L1.80743 12.6148L2.75278 12.3344L2.18409 10.417ZM0.571823 11.9645C0.803943 12.6805 1.11857 13.3686 1.50947 14.0162L3.22171 12.9826C2.90941 12.4653 2.65886 11.9169 2.47434 11.3477L0.571823 11.9645ZM5.05574 13.7804C4.68033 13.3917 4.35189 12.9653 4.07761 12.5099L2.36432 13.5417C2.71798 14.1289 3.13912 14.6748 3.61707 15.1697L5.05574 13.7804ZM1.50881 14.0151C1.89874 14.663 2.36253 15.2662 2.89112 15.8137L4.33003 14.4247C3.90522 13.9846 3.53383 13.5012 3.22238 12.9837L1.50881 14.0151ZM4.27433 15.8672L5.00016 15.223L3.67265 13.7271L2.94682 14.3713L4.27433 15.8672ZM12.1559 15.8756C11.067 16.1131 9.93574 16.1125 8.84709 15.8739L8.41896 17.8276C9.78902 18.1278 11.2116 18.1285 12.582 17.8297L12.1559 15.8756ZM7.66018 16.6193L7.44065 17.5419L9.38633 18.0049L9.60586 17.0822L7.66018 16.6193ZM8.19933 18.7502C9.71377 19.0822 11.2864 19.0833 12.8013 18.7533L12.3757 16.7991C11.1421 17.0678 9.86079 17.0669 8.62766 16.7966L8.19933 18.7502ZM13.5614 17.545L13.3418 16.6214L11.3961 17.0839L11.6156 18.0075L13.5614 17.545ZM17.5805 11.0698C17.2572 12.0759 16.7003 13.0029 15.9478 13.7807L17.3853 15.1713C18.3472 14.177 19.0659 12.9847 19.4846 11.6816L17.5805 11.0698ZM16.0023 15.2235L16.7271 15.8676L18.0557 14.3727L17.3308 13.7285L16.0023 15.2235ZM18.11 15.8156C19.1731 14.7171 19.9671 13.4002 20.4299 11.9613L18.5259 11.349C18.1586 12.491 17.5264 13.5427 16.6728 14.4247L18.11 15.8156ZM19.7614 10.6962L18.816 10.4167L18.2491 12.3347L19.1944 12.6141L19.7614 10.6962ZM16.9238 5.48921C17.2052 5.95758 17.4239 6.44158 17.5834 6.93306L19.4857 6.3156C19.2793 5.67985 18.9976 5.05747 18.6382 4.45925L16.9238 5.48921ZM18.8192 7.58297L19.7635 7.30258L19.1943 5.3853L18.2499 5.66569L18.8192 7.58297ZM20.4302 6.03567C20.1981 5.31958 19.8835 4.63134 19.4924 3.98372L17.7803 5.0175C18.0927 5.53476 18.3432 6.0831 18.5276 6.65221L20.4302 6.03567ZM15.9467 4.22009C16.3221 4.60829 16.6503 5.03431 16.924 5.48956L18.638 4.4589C18.2845 3.87102 17.8631 3.32475 17.3844 2.82981L15.9467 4.22009ZM19.4932 3.98498C19.1033 3.33705 18.6395 2.73381 18.1108 2.18625L16.672 3.5754C17.0968 4.01541 17.4682 4.49878 17.7796 5.01624L19.4932 3.98498ZM16.7276 2.13287L16.0018 2.777L17.3293 4.2729L18.0552 3.62877L16.7276 2.13287ZM8.84609 2.12441C9.93502 1.88693 11.0662 1.88751 12.1549 2.12608L12.583 0.172443C11.213 -0.127799 9.79034 -0.128519 8.41995 0.170332L8.84609 2.12441ZM13.3418 1.38074L13.5613 0.458127L11.6156 -0.0048307L11.3961 0.917784L13.3418 1.38074ZM12.8027 -0.750145C11.2882 -1.08222 9.71558 -1.08329 8.20064 -0.753278L8.62634 1.20089C9.85987 0.932177 11.1412 0.933051 12.3743 1.20344L12.8027 -0.750145ZM7.4406 0.455061L7.66013 1.37862L9.60592 0.916114L9.38639 -0.0074477L7.4406 0.455061ZM10.0177 2.43751V0.685114H8.01769V2.43751H10.0177ZM9.01769 -0.314886H8.02883V1.68511H9.01769V-0.314886ZM7.02883 0.685114V2.43751H9.02883V0.685114H7.02883ZM6.28771 2.79187L4.70454 1.91662L3.73688 3.66694L5.32005 4.5422L6.28771 2.79187ZM3.36451 2.27513L2.87008 3.09449L4.58247 4.1278L5.0769 3.30844L3.36451 2.27513ZM3.24181 4.48596L4.82399 5.36216L5.79292 3.61254L4.21074 2.73634L3.24181 4.48596ZM6.16446 5.00432L6.65988 4.18401L4.94788 3.15006L4.45246 3.97037L6.16446 5.00432ZM2.84812 9.35424L1.26395 10.2295L2.23115 11.9801L3.81531 11.1048L2.84812 9.35424ZM0.891553 11.6218L1.38697 12.4421L3.09898 11.4081L2.60355 10.5878L0.891553 11.6218ZM2.72704 12.8001L4.30922 11.9249L3.3411 10.1748L1.75891 11.0501L2.72704 12.8001ZM4.68207 10.5344L4.18863 9.71407L2.4748 10.745L2.96825 11.5653L4.68207 10.5344ZM4.30981 6.07303L2.72762 5.19872L1.7603 6.94924L3.34249 7.82354L4.30981 6.07303ZM1.38751 5.55776L0.893074 6.37807L2.60599 7.41051L3.10042 6.5902L1.38751 5.55776ZM1.26587 7.76955L2.84806 8.64385L3.81538 6.89334L2.23319 6.01904L1.26587 7.76955ZM4.18817 8.28481L4.68261 7.4645L2.96969 6.43207L2.47526 7.25238L4.18817 8.28481ZM10.0177 17.3111V15.5616H8.01769V17.3111H10.0177ZM9.01769 14.5616H8.02883V16.5616H9.01769V14.5616ZM7.02883 15.5616V17.3111H9.02883V15.5616H7.02883ZM8.02883 18.3111H9.01769V16.3111H8.02883V18.3111ZM4.82562 12.6356L3.24244 13.5109L4.2101 15.2612L5.79328 14.3859L4.82562 12.6356ZM2.86982 14.9023L3.36425 15.7226L5.07716 14.6901L4.58273 13.8698L2.86982 14.9023ZM4.70477 16.0814L6.28695 15.2061L5.31883 13.4561L3.73664 14.3313L4.70477 16.0814ZM6.6598 13.8156L6.16636 12.9953L4.45253 14.0262L4.94598 14.8466L6.6598 13.8156ZM17.7599 13.512L16.1768 12.6358L15.2083 14.3857L16.7915 15.2619L17.7599 13.512ZM14.8358 12.995L14.3414 13.8163L16.0548 14.8478L16.5493 14.0266L14.8358 12.995ZM14.714 15.2071L16.2962 16.0823L17.2643 14.3323L15.6822 13.457L14.714 15.2071ZM17.6363 15.7243L18.1317 14.904L16.4197 13.87L15.9243 14.6903L17.6363 15.7243ZM13.9732 17.314V15.5616H11.9732V17.314H13.9732ZM10.9843 15.5616V17.314H12.9843V15.5616H10.9843ZM11.9843 18.314H12.9732V16.314H11.9843V18.314ZM18.2752 5.19787L16.692 6.07312L17.6597 7.82345L19.2428 6.94819L18.2752 5.19787ZM16.3194 7.4645L16.8138 8.28481L18.5267 7.25238L18.0323 6.43207L16.3194 7.4645ZM18.1543 8.64363L19.7365 7.76838L18.7684 6.01831L17.1862 6.89356L18.1543 8.64363ZM20.1094 6.37788L19.6159 5.55757L17.9021 6.58849L18.3955 7.40881L20.1094 6.37788ZM19.7345 10.2283L18.1534 9.35586L17.1872 11.107L18.7684 11.9794L19.7345 10.2283ZM16.8138 9.71521L16.3194 10.5355L18.0323 11.568L18.5267 10.7476L16.8138 9.71521ZM16.6922 11.927L18.2744 12.8013L19.2417 11.0508L17.6595 10.1765L16.6922 11.927ZM19.6145 12.4423L20.1089 11.622L18.396 10.5895L17.9016 11.4098L19.6145 12.4423ZM20.139 10.6432L20.1381 10.6413L18.3649 11.5664L18.3659 11.5683L20.139 10.6432ZM13.9732 2.43751V0.687956H11.9732V2.43751H13.9732ZM12.9732 -0.312044H11.9843V1.68796H12.9732V-0.312044ZM10.9843 0.687956V2.43751H12.9843V0.687956H10.9843ZM16.297 1.91684L14.7139 2.79304L15.6823 4.54292L17.2655 3.66672L16.297 1.91684ZM16.1768 5.36323L17.7599 4.48703L16.7915 2.73715L15.2083 3.61335L16.1768 5.36323ZM18.1322 3.09588L17.6377 2.27556L15.9248 3.308L16.4192 4.12831L18.1322 3.09588ZM10.9843 2.43751C10.9843 5.09361 13.9255 6.60772 16.1763 5.36348L15.2087 3.61311C14.1627 4.19136 12.9843 3.4264 12.9843 2.43751H10.9843ZM14.7141 2.7929C14.6384 2.83479 14.5493 2.85836 14.4564 2.85834L14.4561 4.85834C14.884 4.85841 15.3067 4.75067 15.6821 4.54307L14.7141 2.7929ZM14.4564 2.85834C14.3634 2.85833 14.2744 2.83473 14.1986 2.79282L13.2301 4.54269C13.6055 4.7504 14.0281 4.85828 14.4561 4.85834L14.4564 2.85834ZM14.1986 2.79282C14.1231 2.75103 14.0658 2.69395 14.0282 2.63153L12.3148 3.6631C12.5375 4.03294 12.8546 4.33484 13.2301 4.54269L14.1986 2.79282ZM14.0282 2.63153C13.9905 2.56887 13.9731 2.50286 13.9732 2.43818L11.9732 2.43684C11.9729 2.87115 12.0923 3.29352 12.3148 3.6631L14.0282 2.63153ZM16.692 6.07405C14.3553 7.36577 14.3553 10.6343 16.692 11.926L17.6596 10.1756C16.6995 9.64484 16.6995 8.35519 17.6596 7.82441L16.692 6.07405ZM18.0323 11.567L18.5267 10.7467L16.8138 9.71426L16.3194 10.5346L18.0323 11.567ZM18.1543 9.35542C18.0788 9.31367 18.0215 9.25662 17.9839 9.19423L16.2709 10.2266C16.4937 10.5962 16.8108 10.8979 17.1863 11.1055L18.1543 9.35542ZM17.9839 9.19423C17.9465 9.13221 17.9287 9.06537 17.9287 9.00001H15.9287C15.9287 9.43346 16.0479 9.85664 16.2709 10.2266L17.9839 9.19423ZM17.9287 9.00001C17.9287 8.93465 17.9465 8.86782 17.9839 8.8058L16.2709 7.77343C16.0479 8.14339 15.9287 8.56657 15.9287 9.00001H17.9287ZM17.9839 8.8058C18.0215 8.7434 18.0788 8.68636 18.1543 8.64461L17.1863 6.89448C16.8108 7.10215 16.4937 7.40384 16.2709 7.77343L17.9839 8.8058ZM18.5267 7.25333L18.0323 6.43301L16.3194 7.46545L16.8138 8.28576L18.5267 7.25333ZM16.1763 12.6365C13.9264 11.3928 10.9843 12.9035 10.9843 15.5616H12.9843C12.9843 14.5727 14.1618 13.8082 15.2087 14.3869L16.1763 12.6365ZM13.9732 15.5616C13.9732 15.4969 13.9906 15.431 14.0283 15.3683L12.3154 14.3359C12.0928 14.7052 11.9732 15.1274 11.9732 15.5615L13.9732 15.5616ZM14.0283 15.3683C14.066 15.3059 14.1233 15.2489 14.1988 15.2071L13.2309 13.4569C12.8554 13.6646 12.5382 13.9663 12.3154 14.3359L14.0283 15.3683ZM14.1988 15.2071C14.2745 15.1652 14.3635 15.1417 14.4565 15.1417L14.4565 13.1417C14.0287 13.1417 13.6061 13.2494 13.2309 13.4569L14.1988 15.2071ZM14.4565 15.1417C14.5494 15.1417 14.6384 15.1652 14.7141 15.2071L15.6821 13.457C15.3068 13.2494 14.8843 13.1417 14.4565 13.1417L14.4565 15.1417ZM16.0546 14.8483L16.549 14.028L14.8361 12.9955L14.3416 13.8158L16.0546 14.8483ZM10.0177 15.5616C10.0177 12.9048 7.0759 11.3926 4.82565 12.6365L5.79324 14.3869C6.83987 13.8083 8.01769 14.5733 8.01769 15.5616H10.0177ZM4.45299 14.028L4.94742 14.8483L6.66034 13.8158L6.1659 12.9955L4.45299 14.028ZM6.28785 15.2071C6.3636 15.1652 6.45265 15.1417 6.54561 15.1417L6.54592 13.1417C6.11797 13.1416 5.69528 13.2494 5.31991 13.457L6.28785 15.2071ZM6.54561 15.1417C6.63857 15.1417 6.72762 15.1653 6.80335 15.2072L7.77183 13.4573C7.39653 13.2496 6.97386 13.1417 6.54592 13.1417L6.54561 15.1417ZM6.80335 15.2072C6.87884 15.249 6.93616 15.3061 6.97374 15.3685L8.68718 14.3369C8.46452 13.9671 8.14737 13.6652 7.77183 13.4573L6.80335 15.2072ZM6.97374 15.3685C7.0111 15.4305 7.02887 15.4974 7.02883 15.5628L9.02883 15.5641C9.02912 15.1305 8.91006 14.7071 8.68718 14.3369L6.97374 15.3685ZM8.02883 16.5635H9.01769V14.5635H8.02883V16.5635ZM10.0177 15.5635V15.5616H8.01769V15.5635H10.0177ZM4.30994 11.926C6.64666 10.6343 6.64666 7.36577 4.30994 6.07405L3.34235 7.82441C4.30252 8.35519 4.30252 9.64484 3.34235 10.1756L4.30994 11.926ZM2.96969 6.43301L2.47526 7.25333L4.18817 8.28576L4.68261 7.46545L2.96969 6.43301ZM2.84797 8.64476C3.01302 8.73598 3.07336 8.87231 3.07336 8.99918C3.07336 9.12612 3.01291 9.263 2.84733 9.35468L3.8161 11.1044C5.49186 10.1766 5.49326 7.82168 3.81546 6.89433L2.84797 8.64476ZM2.475 10.7453L2.96943 11.5666L4.68287 10.535L4.18844 9.71375L2.475 10.7453ZM7.02883 2.43679C7.02878 2.50213 7.01094 2.56894 6.97353 2.63094L8.68591 3.66426C8.90902 3.29453 9.02851 2.87156 9.02883 2.43824L7.02883 2.43679ZM6.97353 2.63094C6.93589 2.6933 6.87855 2.75032 6.80306 2.79203L7.7704 4.54253C8.14583 4.33507 8.46302 4.03362 8.68591 3.66426L6.97353 2.63094ZM6.80306 2.79203C6.72734 2.83388 6.63834 2.85741 6.54544 2.85739L6.54511 4.85739C6.97278 4.85747 7.39521 4.74987 7.7704 4.54253L6.80306 2.79203ZM6.54544 2.85739C6.45254 2.85738 6.36355 2.83382 6.28785 2.79195L5.31991 4.54212C5.69504 4.74958 6.11743 4.85732 6.54511 4.85739L6.54544 2.85739ZM4.94716 3.15125L4.45273 3.97251L6.16617 5.00408L6.6606 4.18282L4.94716 3.15125ZM4.82565 5.36348C7.07619 6.60756 10.0177 5.09488 10.0177 2.43751H8.01769C8.01769 3.42703 6.83958 4.19152 5.79324 3.61311L4.82565 5.36348Z" fill="#216206" mask="url(#path-2-inside-1_190_811)"/>
</svg>
