<svg width="18" height="18" viewBox="0 0 18 18" fill="none" xmlns="http://www.w3.org/2000/svg">
<path d="M8.13425 11.6835H4.89912C1.51737 11.382 1.53537 6.43572 4.91937 6.15747C5.54 3.78747 7.41012 2.75172 9.2075 2.84847C9.92391 2.88102 10.6192 3.1015 11.2234 3.48774C11.8277 3.87399 12.3197 4.41242 12.65 5.04897C16.8699 5.77459 16.3617 11.1836 12.65 11.6835H9.20487" stroke="#216206" stroke-linecap="round" stroke-linejoin="round"/>
<path d="M7.14269 3.26721C6.96959 2.91871 6.71774 2.61529 6.40708 2.38097C6.09642 2.14665 5.73548 1.98786 5.35283 1.91719C4.97018 1.84651 4.57633 1.86588 4.20246 1.97377C3.8286 2.08165 3.48498 2.27509 3.19881 2.53876C2.91264 2.80244 2.69178 3.12911 2.55372 3.49291C2.41566 3.85672 2.36418 4.24767 2.40337 4.63481C2.44255 5.02196 2.57133 5.39466 2.77949 5.72342C2.98765 6.05219 3.26949 6.32798 3.60269 6.52896M9.43094 9.51133L7.65756 12.7682L8.83131 13.363L8.32506 15.8226L10.2826 12.9238L9.13956 12.3126L9.43094 9.51133Z" stroke="#216206" stroke-linecap="round" stroke-linejoin="round"/>
<path d="M6.5459 12.8994C6.70123 12.8994 6.82715 12.7735 6.82715 12.6182C6.82715 12.4628 6.70123 12.3369 6.5459 12.3369C6.39057 12.3369 6.26465 12.4628 6.26465 12.6182C6.26465 12.7735 6.39057 12.8994 6.5459 12.8994Z" fill="#216206"/>
<path d="M10.8809 15.5781C11.157 15.5781 11.3809 15.3543 11.3809 15.0781C11.3809 14.802 11.157 14.5781 10.8809 14.5781C10.6047 14.5781 10.3809 14.802 10.3809 15.0781C10.3809 15.3543 10.6047 15.5781 10.8809 15.5781Z" fill="#216206"/>
<path d="M11.4355 13.3066C11.5909 13.3066 11.7168 13.1807 11.7168 13.0254C11.7168 12.8701 11.5909 12.7441 11.4355 12.7441C11.2802 12.7441 11.1543 12.8701 11.1543 13.0254C11.1543 13.1807 11.2802 13.3066 11.4355 13.3066Z" fill="#216206"/>
<path d="M4.48535 13.3472C4.64068 13.3472 4.7666 13.2212 4.7666 13.0659C4.7666 12.9106 4.64068 12.7847 4.48535 12.7847C4.33002 12.7847 4.2041 12.9106 4.2041 13.0659C4.2041 13.2212 4.33002 13.3472 4.48535 13.3472Z" fill="#216206"/>
<path d="M6.71167 14.4233C6.867 14.4233 6.99292 14.2974 6.99292 14.1421C6.99292 13.9868 6.867 13.8608 6.71167 13.8608C6.55634 13.8608 6.43042 13.9868 6.43042 14.1421C6.43042 14.2974 6.55634 14.4233 6.71167 14.4233Z" fill="#216206"/>
<path d="M14.1199 13.0449C14.2752 13.0449 14.4011 12.919 14.4011 12.7637C14.4011 12.6083 14.2752 12.4824 14.1199 12.4824C13.9645 12.4824 13.8386 12.6083 13.8386 12.7637C13.8386 12.919 13.9645 13.0449 14.1199 13.0449Z" fill="#216206"/>
<path d="M12.9346 15.8228C13.0899 15.8228 13.2158 15.6968 13.2158 15.5415C13.2158 15.3862 13.0899 15.2603 12.9346 15.2603C12.7792 15.2603 12.6533 15.3862 12.6533 15.5415C12.6533 15.6968 12.7792 15.8228 12.9346 15.8228Z" fill="#216206"/>
<path d="M12.7737 14.125C12.929 14.125 13.0549 13.9991 13.0549 13.8438C13.0549 13.6884 12.929 13.5625 12.7737 13.5625C12.6184 13.5625 12.4924 13.6884 12.4924 13.8438C12.4924 13.9991 12.6184 14.125 12.7737 14.125Z" fill="#216206"/>
<path d="M5.29688 16.104C5.45221 16.104 5.57812 15.9781 5.57812 15.8228C5.57812 15.6674 5.45221 15.5415 5.29688 15.5415C5.14154 15.5415 5.01562 15.6674 5.01562 15.8228C5.01562 15.9781 5.14154 16.104 5.29688 16.104Z" fill="#216206"/>
</svg>
